<?xml version="1.0" encoding="UTF-8"?>
<!DOCTYPE svg PUBLIC "-//W3C//DTD SVG 1.1//EN" "http://www.w3.org/Graphics/SVG/1.1/DTD/svg11.dtd">
<!-- Creator: CorelDRAW -->
<svg xmlns="http://www.w3.org/2000/svg" xml:space="preserve" width="2480px" height="3508px" style="shape-rendering:geometricPrecision; text-rendering:geometricPrecision; image-rendering:optimizeQuality; fill-rule:evenodd; clip-rule:evenodd"
viewBox="0 0 2337.84 1728.59"
 xmlns:xlink="http://www.w3.org/1999/xlink">
 <defs>
  <style type="text/css">
   <![CDATA[
    .fil0 {fill:#FEFEFE}
   ]]>
  </style>
 </defs>
 <g id="Layer_x0020_1">
  <metadata id="CorelCorpID_0Corel-Layer"/>
  <polygon class="fil0" points="469.609,1135.34 1036.2,1135.34 1036.2,1416.62 1322.05,1416.62 1322.05,562.556 1036.2,562.556 1036.2,843.835 755.459,843.835 755.459,562.556 469.609,562.556 "/>
  <polygon class="fil0" points="1347.57,1728.59 1633.42,1728.59 1633.42,1447.31 1914.17,1447.31 1914.17,1728.59 2200.02,1728.59 2200.02,1171.14 2184.7,1155.8 1633.42,1155.8 1633.42,874.52 1347.57,874.52 "/>
  <polygon class="fil0" points="158.238,1728.59 444.087,1728.59 444.087,1447.31 724.832,1447.31 724.832,1728.59 1010.68,1728.59 1010.68,1171.14 995.367,1155.8 444.087,1155.8 444.087,874.52 158.238,874.52 "/>
  <path class="fil0" d="M-0 961.462l76.5668 40.9128 484.923 -874.52 217.317 119.804c167.804,99.7195 372.914,202.42 540.296,302.511 18.3773,10.9898 33.9651,18.9639 52.4203,29.3074 109.022,61.0985 285.106,154.29 380.289,212.23 65.9336,40.1362 151.78,82.1622 216.348,120.772l328.841 181.951 40.8367 -86.9412c-23.2939,-5.43609 -139.879,-75.1693 -168.678,-91.8234l-55.8905 -30.9439c-73.4388,-37.9965 -156.195,-90.4621 -226.339,-126.107 -20.2111,-10.2712 -35.6667,-19.4291 -56.0589,-30.7755 -19.0544,-10.6025 -37.2959,-20.2817 -55.514,-31.3222 -109.911,-66.607 -337.794,-189.309 -451.731,-253.161l-367.398 -204.691c-94.4663,-50.487 -278.289,-153.212 -366.267,-205.82l-59.0982 -32.8446c-21.109,39.9696 -43.9811,79.4143 -66.1273,117.856l-200.929 361.245c-45.4347,81.9649 -88.7007,157.464 -132.787,240.294 -17.2098,32.3323 -124.201,212.741 -131.02,242.066z"/>
 </g>
</svg>
